<svg id="圖層_1" data-name="圖層 1" xmlns="http://www.w3.org/2000/svg" viewBox="0 0 60 60"><defs><style>.cls-1{fill:#fff;}</style></defs><title>i_air </title><path class="cls-1" d="M8,42.48H52V39.41H8Zm43.21-6.66H8.75a.71.71,0,0,0-.71.71v1.88H52V36.53A.71.71,0,0,0,51.25,35.82ZM56,17.52H4A3.11,3.11,0,0,0,.92,20.63V39.37A3.11,3.11,0,0,0,4,42.48H7V36.53a1.72,1.72,0,0,1,1.71-1.71h42.5A1.72,1.72,0,0,1,53,36.53v5.95h3a3.11,3.11,0,0,0,3.12-3.11V20.63A3.11,3.11,0,0,0,56,17.52ZM41.74,30.84a1.07,1.07,0,1,1,1.06-1.06A1.05,1.05,0,0,1,41.74,30.84Zm3.51,0a1.07,1.07,0,1,1,1.06-1.06A1.06,1.06,0,0,1,45.25,30.84Zm6.87-.72H51l.82.83a.34.34,0,0,1-.49.48l-.82-.82v1.16a.35.35,0,0,1-.34.35.35.35,0,0,1-.35-.35V30.61l-.82.82a.34.34,0,0,1-.24.1.34.34,0,0,1-.25-.58l.83-.83H48.13a.34.34,0,1,1,0-.68H49.3l-.83-.83a.34.34,0,0,1,0-.48.34.34,0,0,1,.49,0l.82.82V27.79a.35.35,0,0,1,.35-.35.35.35,0,0,1,.34.35V29l.82-.82a.34.34,0,0,1,.49,0,.34.34,0,0,1,0,.48l-.83.83h1.17a.34.34,0,0,1,0,.68Zm-4.88-6.89H12.76A5.72,5.72,0,0,1,7,17.52H8a4.72,4.72,0,0,0,4.72,4.71H47.24A4.72,4.72,0,0,0,52,17.52h1A5.72,5.72,0,0,1,47.24,23.23Z"/></svg>