<svg id="圖層_1" data-name="圖層 1" xmlns="http://www.w3.org/2000/svg" viewBox="0 0 60 60"><defs><style>.cls-1{fill:#fff;}</style></defs><title>i_fridge</title><path class="cls-1" d="M26.6,32.15a4.48,4.48,0,0,1-3.19,1.32H14.28V55.1a2.84,2.84,0,0,0,2.84,2.83H42.88a2.84,2.84,0,0,0,2.84-2.83V30.5H28.25Zm14.5,4.73a.59.59,0,0,1,.59-.59h.54a.58.58,0,0,1,.59.59v4.87a.59.59,0,0,1-.59.59h-.54a.6.6,0,0,1-.59-.59ZM42.88,2.07H17.12A2.84,2.84,0,0,0,14.28,4.9V29.5H45.72V4.9A2.84,2.84,0,0,0,42.88,2.07ZM18.62,6.56a1.07,1.07,0,1,1,0-2.13,1.07,1.07,0,0,1,0,2.13Zm3.5,0a1.07,1.07,0,1,1,1.07-1.07A1.07,1.07,0,0,1,22.12,6.56Zm20.7,16.56a.58.58,0,0,1-.59.59h-.54a.59.59,0,0,1-.59-.59V18.25a.6.6,0,0,1,.59-.59h.54a.59.59,0,0,1,.59.59ZM25.89,31.45l.95-.95H14.28v2h9.13A3.48,3.48,0,0,0,25.89,31.45Z"/></svg>