<svg id="圖層_1" data-name="圖層 1" xmlns="http://www.w3.org/2000/svg" viewBox="0 0 60 60"><defs><style>.cls-1{fill:none;}.cls-2{fill:#23a698;}.cls-3{fill:#146159;}</style></defs><title>icon</title><path class="cls-1" d="M16.12,25.88H38a.5.5,0,0,0,.5-.5.51.51,0,0,0-.5-.5H16.12a.5.5,0,0,0-.5.5A.5.5,0,0,0,16.12,25.88Z"/><path class="cls-1" d="M16.12,19.51H38a.5.5,0,0,0,0-1H16.12a.5.5,0,1,0,0,1Z"/><path class="cls-1" d="M38.49,31.76a.5.5,0,0,0-.5-.5H16.12a.5.5,0,0,0-.5.5.5.5,0,0,0,.5.5H38A.51.51,0,0,0,38.49,31.76Z"/><path class="cls-1" d="M45.55,46.09,42.1,49.83l-1.66-1.42a1,1,0,1,0-1.3,1.51l3.11,2.68L47,47.45a1,1,0,1,0-1.47-1.36Z"/><path class="cls-2" d="M36.07,46.28V42.2h4.08L43,39.31l2.53,2.54V5.47A3.06,3.06,0,0,0,42.51,2.4H38.86V9.11h6.71v1H38.36a.5.5,0,0,1-.5-.5V2.4H11.59A3.06,3.06,0,0,0,8.53,5.47V52.13a3.06,3.06,0,0,0,3.06,3.07H36.07V52.05l-2.88-2.89ZM16.12,18.51H38a.5.5,0,0,1,0,1H16.12a.5.5,0,1,1,0-1Zm0,6.37H38a.51.51,0,0,1,.5.5.5.5,0,0,1-.5.5H16.12a.5.5,0,0,1-.5-.5A.5.5,0,0,1,16.12,24.88Zm-.5,6.88a.5.5,0,0,1,.5-.5H38a.5.5,0,0,1,.5.5.51.51,0,0,1-.5.5H16.12A.5.5,0,0,1,15.62,31.76Z"/><path class="cls-3" d="M49,46.69V43.2H45.51L43,40.73,40.57,43.2h-3.5v3.49L34.6,49.16l2.47,2.48v3.49h3.5L43,57.6l2.47-2.47H49V51.64l2.47-2.48Zm-2,.76L42.25,52.6l-3.11-2.68a1,1,0,1,1,1.3-1.51l1.66,1.42,3.45-3.74A1,1,0,1,1,47,47.45Z"/></svg>