<svg id="圖層_1" data-name="圖層 1" xmlns="http://www.w3.org/2000/svg" viewBox="0 0 60 60"><defs><style>.cls-1{fill:none;}.cls-2{fill:#23a698;}.cls-3{fill:#146159;}</style></defs><title>icon</title><path class="cls-1" d="M42.45,25.68a1,1,0,1,0-1-1A1,1,0,0,0,42.45,25.68Z"/><circle class="cls-1" cx="42.45" cy="21.13" r="1.02"/><path class="cls-2" d="M47.8,34.47H46v.18H38.41a1.53,1.53,0,0,1-1.53-1.52V23.24a5.89,5.89,0,0,0-.62-.6,2,2,0,0,0-1.53-.48,1.86,1.86,0,0,0-1.47,1.12l-1.81,4.24-7,9.71h-5.6V56.79h8a1.12,1.12,0,0,1,.66.23,2.89,2.89,0,0,0,1.7.54H44.52a3.38,3.38,0,0,0,3.38-3.38v-.35a3.36,3.36,0,0,0-.67-2,3.46,3.46,0,0,0,1.79-3v-.2a3.49,3.49,0,0,0-.69-2.08,3.45,3.45,0,0,0,1.81-3v-.19a3.49,3.49,0,0,0-.69-2.08,3.47,3.47,0,0,0,1.81-3v-.19A3.47,3.47,0,0,0,47.8,34.47Z"/><path class="cls-3" d="M37.71,18.78l.36.15v14.2a.34.34,0,0,0,.34.33H44.8V18.93l.37-.15A9.76,9.76,0,0,0,47.75,2.31a.31.31,0,0,0-.34,0,.33.33,0,0,0-.2.31v6.7l-5.65,3.24L35.92,9.28V2.35a.34.34,0,0,0-.19-.3.33.33,0,0,0-.15,0,.29.29,0,0,0-.18.07,9.76,9.76,0,0,0,2.31,16.7Zm4.74,1.33a1,1,0,1,1,0,2,1,1,0,0,1,0-2Zm0,3.54a1,1,0,1,1,0,2,1,1,0,0,1,0-2Z"/><path class="cls-2" d="M15.87,36H11.31a2.58,2.58,0,0,0-2.57,2.58v16.8A2.58,2.58,0,0,0,11.31,58h4.56a2.55,2.55,0,0,0,2-1V37A2.55,2.55,0,0,0,15.87,36Z"/></svg>