<svg id="圖層_1" data-name="圖層 1" xmlns="http://www.w3.org/2000/svg" viewBox="0 0 78 60"><defs><style>.cls-1{fill:#146159;}.cls-2{fill:#23a698;}</style></defs><title>icon</title><path class="cls-1" d="M21.85,43.48A1.1,1.1,0,0,0,23,44.55h3.44a7,7,0,0,1,.59-3.43,5.18,5.18,0,0,1,.59-1.07H22.21Z"/><path class="cls-1" d="M73.31,32.71H72l-4-7.57a4.24,4.24,0,0,0-3.44-1.89H57.42L56,37.33a3.12,3.12,0,0,1-3.2,2.84H38.22a6.16,6.16,0,0,1,1.3,4.5H57a7.33,7.33,0,0,1,.59-3.44,6,6,0,0,1,3-2.95,6.82,6.82,0,0,1,7.7,1.3,6.38,6.38,0,0,1,1.9,5.09h4c.6,0,1.07-.36,1.07-.83l.71-8.64C76.16,33.78,74.85,32.71,73.31,32.71ZM68,31.29H60.51L61,25h3.2a2.13,2.13,0,0,1,1.9,1.19l2.13,4.85A.24.24,0,0,1,68,31.29Z"/><path class="cls-1" d="M61.22,39.34a4.57,4.57,0,0,0-2.37,2.37,4.77,4.77,0,0,0-.48,2.84,5.44,5.44,0,0,0,1.54,3.31,5.61,5.61,0,0,0,6.17,1.07,4.64,4.64,0,0,0,2.37-2.37,5.49,5.49,0,0,0,.48-2,5,5,0,0,0-1.55-4.14A5.41,5.41,0,0,0,61.22,39.34Zm4.62,6.27a1.91,1.91,0,0,1-.71.71,2.76,2.76,0,0,1-4.27-1.77,3.15,3.15,0,0,1,.36-2,1.91,1.91,0,0,1,.71-.71,2.77,2.77,0,0,1,4.27,2.72A1.88,1.88,0,0,1,65.84,45.61Z"/><path class="cls-2" d="M29.09,38.63A4.05,4.05,0,0,1,30,38a6.55,6.55,0,0,1,6.76.59H52.68A1.92,1.92,0,0,0,54.58,37L56,23,57.07,12.6a2.23,2.23,0,0,0-.48-1.42,1.93,1.93,0,0,0-1.42-.59H19.24a1.92,1.92,0,0,0-1.89,1.65l-1.54,12.9H3.24a1.19,1.19,0,1,0,0,2.37H15.69l-.12,1.3h-10a1.19,1.19,0,1,0,0,2.37h9.6l-.12,1.3H7.62a1.18,1.18,0,0,0,0,2.36h7.12l-.24,1.54A1.6,1.6,0,0,0,15,37.8a1.93,1.93,0,0,0,1.42.59H29.09Z"/><path class="cls-1" d="M36.44,40.05c-.36-.24-.6-.47-.95-.71a5.54,5.54,0,0,0-4.74,0,2.81,2.81,0,0,0-1.07.71,6.17,6.17,0,0,0-1.31,1.66,5.32,5.32,0,0,0,1.07,6,5.61,5.61,0,0,0,6.17,1.07A4.68,4.68,0,0,0,38,46.44a5.47,5.47,0,0,0,.47-1.89,4.92,4.92,0,0,0-1.54-4.14A5,5,0,0,0,36.44,40.05Zm-1.07,5.56a2,2,0,0,1-.71.71,2.72,2.72,0,0,1-4.27-1.77,3.15,3.15,0,0,1,.36-2,1.86,1.86,0,0,1,.71-.71,2.75,2.75,0,0,1,4.27,2.72A3.7,3.7,0,0,1,35.37,45.61Z"/></svg>