<svg id="圖層_1" data-name="圖層 1" xmlns="http://www.w3.org/2000/svg" viewBox="0 0 60 60"><defs><style>.cls-1{fill:#fff;}</style></defs><title>i_tv</title><path class="cls-1" d="M50.83,39.53a1.22,1.22,0,1,0,1.22,1.22A1.22,1.22,0,0,0,50.83,39.53Zm2.46-7.81H48.37a.78.78,0,0,0-.78.79v13.9a.78.78,0,0,0,.78.79h4.92a.79.79,0,0,0,.79-.79V32.51A.79.79,0,0,0,53.29,31.72Zm-1.58,2a.53.53,0,0,1,.53.53.53.53,0,0,1-.53.53.52.52,0,0,1-.53-.53A.53.53,0,0,1,51.71,33.74Zm0,1.6a.53.53,0,0,1,.53.53.53.53,0,0,1-.53.53.52.52,0,0,1-.53-.53A.53.53,0,0,1,51.71,35.34ZM50,33.74a.53.53,0,0,1,.53.53.54.54,0,0,1-1.07,0A.54.54,0,0,1,50,33.74Zm0,1.6a.53.53,0,0,1,.53.53.54.54,0,0,1-1.07,0A.54.54,0,0,1,50,35.34Zm.87,7.9a2.49,2.49,0,1,1,2.49-2.49A2.49,2.49,0,0,1,50.83,43.24Zm-4.51,1.23h-33v2.39a1,1,0,0,0,1,1H45.66a1,1,0,0,0,.86-.54,2.14,2.14,0,0,1-.2-.88Zm9-32.3H4.63a1.94,1.94,0,0,0-1.95,1.94V41.54a1.94,1.94,0,0,0,1.95,1.94H46.32v-11a2.05,2.05,0,0,1,2-2.06h4.92a2.05,2.05,0,0,1,2.05,2.06v11h0a1.94,1.94,0,0,0,2-1.94V14.11A1.94,1.94,0,0,0,55.37,12.17ZM6.85,41.3a1.07,1.07,0,0,1,0-2.13,1.07,1.07,0,1,1,0,2.13Zm3.51,0a1.07,1.07,0,1,1,1.06-1.06A1.06,1.06,0,0,1,10.36,41.3Zm5-25.12H7v6.4a.63.63,0,1,1-1.26,0v-7a.63.63,0,0,1,.63-.63h9a.63.63,0,0,1,.63.63A.64.64,0,0,1,15.35,16.18Z"/></svg>