<svg id="圖層_1" data-name="圖層 1" xmlns="http://www.w3.org/2000/svg" viewBox="0 0 60 60"><defs><style>.cls-1{fill:none;}.cls-2{fill:#23a698;}.cls-3{fill:#146159;}</style></defs><title>icon</title><path class="cls-1" d="M50.85,37,47.4,40.69l-1.65-1.42a1,1,0,0,0-1.31,1.52l3.12,2.68,4.76-5.16a1,1,0,0,0,0-1.41A1,1,0,0,0,50.85,37Z"/><path class="cls-1" d="M22.1,31.63,9,24.08v7.3L22.1,38.93Zm-1,5.57L10,30.8v-5L21.1,32.21Z"/><path class="cls-2" d="M5.17,19.21V40.86a2.82,2.82,0,0,0,1.42,2.45L25.34,54.14a2.57,2.57,0,0,0,.92.31V30.32L5.36,18.25A2.83,2.83,0,0,0,5.17,19.21ZM9,24.08,22.1,31.63v7.3L9,31.38Z"/><polygon class="cls-3" points="10.02 30.8 21.1 37.2 21.1 32.21 10.02 25.82 10.02 30.8"/><path class="cls-3" d="M53.85,34.64A11.14,11.14,0,0,1,49,32.73a1.22,1.22,0,0,0-.66-.2,1.18,1.18,0,0,0-.67.21,10.82,10.82,0,0,1-4.86,1.91,1.13,1.13,0,0,0-1,1.13v1.07c0,7.77,4.71,9.83,6.15,10.28a1.13,1.13,0,0,0,.68,0c1.44-.45,6.15-2.51,6.15-10.28V35.77A1.14,1.14,0,0,0,53.85,34.64Zm-1.53,3.67-4.76,5.16-3.12-2.68a1,1,0,0,1,1.31-1.52l1.65,1.42L50.85,37a1,1,0,0,1,1.42-.05A1,1,0,0,1,52.32,38.31Z"/><path class="cls-2" d="M46.92,16.75,28.17,5.93a2.81,2.81,0,0,0-2.83,0L6.59,16.75a2.65,2.65,0,0,0-.73.64l20.9,12.07,20.9-12.07A2.85,2.85,0,0,0,46.92,16.75Z"/><path class="cls-2" d="M40.85,35.78a2.15,2.15,0,0,1,1.85-2.13,9.76,9.76,0,0,0,4.41-1.72,2.15,2.15,0,0,1,1.23-.4V19.21a2.83,2.83,0,0,0-.19-1L27.26,30.32V54.45a2.52,2.52,0,0,0,.91-.31l15.36-8.87c-1.45-1.7-2.68-4.33-2.68-8.42Z"/></svg>