<svg id="圖層_1" data-name="圖層 1" xmlns="http://www.w3.org/2000/svg" viewBox="0 0 60 60"><defs><style>.cls-1{fill:#fff;}</style></defs><title>i_washing</title><path class="cls-1" d="M30,44A11.45,11.45,0,1,0,18.55,32.55,11.47,11.47,0,0,0,30,44Zm0-20a8.56,8.56,0,1,1-8.56,8.56A8.57,8.57,0,0,1,30,24ZM7.54,51.65a2.83,2.83,0,0,0,2.83,2.83H49.63a2.83,2.83,0,0,0,2.83-2.83v-.6H7.54Zm0-1.6H52.46v-35H7.54ZM30,20.1A12.45,12.45,0,1,1,17.55,32.55,12.46,12.46,0,0,1,30,20.1Zm0,20a7.56,7.56,0,1,0-7.56-7.56A7.57,7.57,0,0,0,30,40.11ZM40.85,13l-1.1,1.1H52.46V11.92H43.33A3.45,3.45,0,0,0,40.85,13Zm8.78-7.43H10.37A2.84,2.84,0,0,0,7.54,8.36v5.69H38.33l1.81-1.81a4.49,4.49,0,0,1,3.19-1.32h9.13V8.36A2.84,2.84,0,0,0,49.63,5.52Zm-37.45,5.9a1.07,1.07,0,1,1,0-2.13,1.07,1.07,0,0,1,0,2.13Zm3.5,0a1.07,1.07,0,1,1,1.07-1.07A1.07,1.07,0,0,1,15.68,11.42Zm10.69-.79a.58.58,0,0,1-.58.58H20.91a.59.59,0,0,1-.59-.58v-.55a.59.59,0,0,1,.59-.58h4.88a.58.58,0,0,1,.58.58Z"/></svg>