<svg width="230" height="52" viewBox="0 0 230 52" fill="none" xmlns="http://www.w3.org/2000/svg">
<path d="M0 24.2545H14.5956C18.1968 24.2545 20.4863 25.0653 22.0126 26.5917C22.9428 27.5218 23.6105 28.8573 23.6105 30.646V30.7176C23.6105 33.8179 21.7503 35.702 18.96 36.6798C22.2988 37.6576 24.4691 39.4463 24.4691 42.9998V43.0713C24.4691 47.2449 21.0348 50.2976 14.4525 50.2976H0V24.2545ZM12.2822 34.4857C14.1425 34.4857 15.0487 33.8418 15.0487 32.697V32.6255C15.0487 31.4807 14.1186 30.8368 12.2584 30.8368H8.49025V34.4857H12.2822ZM12.8546 43.7153C14.7625 43.7153 15.7165 42.9283 15.7165 41.8073V41.7358C15.7165 40.6149 14.7864 39.8279 12.8785 39.8279H8.49025V43.6914H12.8546V43.7153Z" fill="#259D91"/>
<path d="M26.3531 24.2545H48.5804V31.4092H34.9149V34.0564H47.6503V40.3526H34.9149V43.1906H48.7712V50.3453H26.3531V24.2545Z" fill="#259D91"/>
<path d="M130.406 34.5811L127.258 33.9134C124.158 33.1979 123.514 32.387 123.514 31.3615C123.514 29.8113 125.016 28.8097 127.354 28.8097C129.786 28.8097 131.384 29.9306 131.527 31.7431L131.575 32.3393H137.919L137.895 31.6716C137.8 26.544 133.65 23.2052 127.306 23.2052C121.058 23.2052 116.717 26.7348 116.717 31.8146C116.717 35.9644 119.293 38.6116 124.373 39.7087L127.759 40.448C130.979 41.1635 131.623 42.022 131.623 43.1429C131.623 44.6931 129.882 45.7902 127.378 45.7902C124.802 45.7902 122.846 44.5739 122.655 42.8091L122.584 42.2367H116.097L116.121 42.9044C116.288 48.1274 120.533 51.3947 127.163 51.3947C133.96 51.3947 138.348 47.9127 138.348 42.5229C138.396 38.2062 135.939 35.7736 130.406 34.5811Z" fill="#259D91"/>
<path d="M127.211 51.8716C120.294 51.8716 115.882 48.4373 115.692 42.9282L115.644 41.7596H123.037L123.156 42.7613C123.323 44.2637 125.088 45.3131 127.401 45.3131C129.619 45.3131 131.17 44.4307 131.17 43.1428C131.17 42.4035 130.907 41.6404 127.664 40.901L124.277 40.1617C118.935 39.017 116.24 36.2028 116.24 31.8145C116.24 26.4724 120.795 22.7281 127.306 22.7281C133.936 22.7281 138.277 26.2339 138.372 31.6476L138.396 32.7924H131.122L131.027 31.7669C130.907 30.2167 129.476 29.2627 127.306 29.2627C125.255 29.2627 123.943 30.0736 123.943 31.3376C123.943 31.9815 124.206 32.7208 127.33 33.4363L130.478 34.1041C136.178 35.3204 138.849 37.9915 138.849 42.5228C138.873 48.1988 134.294 51.8716 127.211 51.8716ZM116.622 42.7374V42.9043C116.789 47.8411 120.843 50.9176 127.187 50.9176C133.698 50.9176 137.895 47.6265 137.895 42.5228C137.895 38.4207 135.629 36.1789 130.287 35.0342L127.139 34.3664C124.158 33.6986 123.013 32.8401 123.013 31.3376C123.013 29.5012 124.707 28.3088 127.33 28.3088C130.025 28.3088 131.814 29.5966 131.981 31.6715L132.004 31.8384H137.442V31.6715C137.347 26.8063 133.388 23.682 127.33 23.682C121.368 23.682 117.218 27.0209 117.218 31.8145C117.218 35.7019 119.674 38.2061 124.516 39.2316L127.902 39.9709C130.955 40.6625 132.147 41.5449 132.147 43.1428C132.147 44.9792 130.216 46.2671 127.425 46.2671C124.611 46.2671 122.465 44.86 122.226 42.8805L122.202 42.7374H116.622Z" fill="#259D91"/>
<path d="M141.139 24.2545H149.844V33.4602H157.809V24.2545H166.514V50.3215H157.809V40.9726H149.844V50.3215H141.139V24.2545Z" fill="#259D91"/>
<path d="M168.923 37.3475V37.276C168.923 29.7158 175.147 23.682 183.185 23.682C191.222 23.682 197.375 29.6443 197.375 37.2044V37.276C197.375 44.8361 191.15 50.8699 183.113 50.8699C175.076 50.8699 168.923 44.9077 168.923 37.3475ZM188.574 37.3475V37.276C188.574 34.1756 186.452 31.3853 183.113 31.3853C179.798 31.3853 177.723 34.1517 177.723 37.2044V37.276C177.723 40.3763 179.846 43.1667 183.185 43.1667C186.476 43.1667 188.574 40.4002 188.574 37.3475Z" fill="#259D91"/>
<path d="M199.736 24.2545H211.469C218.386 24.2545 223.131 27.3548 223.131 33.5317V33.6033C223.131 39.8994 218.338 43.2383 211.302 43.2383H208.464V50.3215H199.759V24.2545H199.736ZM210.802 37.0137C213.043 37.0137 214.522 36.012 214.522 34.1518V34.0803C214.522 32.1723 213.139 31.2184 210.825 31.2184H208.44V37.0375H210.802V37.0137Z" fill="#259D91"/>
<path d="M89.6008 42.8568C89.6008 36.6322 102.288 33.9373 103.004 33.7942C104.268 33.5557 106.033 33.9372 107.058 32.9833C107.464 32.6017 108.537 30.7653 108.752 30.2883C109.109 29.5013 108.513 29.4059 107.893 29.1674C106.868 28.762 105.866 28.3089 104.84 27.8796C104.459 27.7126 104.196 27.4503 104.053 27.021C103.529 25.4231 101.382 24.7315 99.9036 24.3976C99.689 24.3499 97.8287 24.1353 97.781 23.9922C97.4948 22.7044 97.0417 22.1797 96.3024 22.2989C95.3484 22.4659 94.7999 23.3721 94.9668 24.4453C94.9668 24.4453 80.8721 25.3993 80.8721 35.5828C80.8721 43.62 80.8721 50.25 80.8721 50.25H89.577V42.8568H89.6008Z" fill="#125F57"/>
<path d="M64.8455 24.0636C62.2221 24.0636 59.8611 25.6377 58.8594 28.0464L49.5344 50.2976H58.8355L60.1711 46.7918H69.2814L70.6647 50.2976H79.4411V48.652V35.6066C79.4411 29.0481 84.664 25.59 89.5769 24.0398H64.8455V24.0636ZM64.8455 40.3764C63.1045 40.3764 61.6736 38.9454 61.6736 37.2044C61.6736 35.4635 63.1045 34.0325 64.8455 34.0325C66.5865 34.0325 68.0174 35.4635 68.0174 37.2044C68.0174 38.9693 66.5865 40.3764 64.8455 40.3764Z" fill="#259D91"/>
<path d="M97.304 37.109L106.319 50.3214H96.3739L91.1033 42.4035C91.1033 42.4035 91.2225 39.4701 97.304 37.109Z" fill="#125F57"/>
<path d="M226.566 50.8699C228.463 50.8699 230 49.3323 230 47.4356C230 45.5389 228.463 44.0014 226.566 44.0014C224.669 44.0014 223.132 45.5389 223.132 47.4356C223.132 49.3323 224.669 50.8699 226.566 50.8699Z" fill="#259D91"/>
<path d="M3.86351 11.1613C3.41038 12.2345 2.7426 13.1646 1.83634 13.9039L0.596191 13.1169C1.38321 12.4492 2.05098 11.6383 2.59951 10.6843L3.86351 11.1613ZM0.906229 3.33882L0.667738 2.02713L1.31166 2.05097L1.81249 2.02713C2.05098 1.76479 2.31332 1.3832 2.55181 0.953922L3.07649 0.0238037L4.48358 0.286144L3.9589 1.16856C3.79196 1.45475 3.62502 1.71709 3.45807 1.90788C3.43423 1.93173 3.38653 1.97943 3.36268 2.02713L4.53128 1.95558C5.05596 1.95558 5.43754 1.90788 5.72373 1.81248L5.53294 1.55015L5.15136 1.07317L6.29611 0.476941C6.86848 1.09702 7.51241 1.93173 8.25173 2.98109L6.98773 3.7204L6.72539 3.26727L6.4869 2.90954C5.60449 3.10033 4.74592 3.17188 3.91121 3.17188C2.7903 3.19573 1.78864 3.24343 0.906229 3.33882ZM2.81415 10.6605H1.45476V3.83965H7.27392V9.25338V9.49187C7.27392 10.1596 6.91618 10.4935 6.20071 10.4935H4.67438L4.41204 9.32492L5.60449 9.37263C5.81913 9.37263 5.91452 9.30108 5.91452 9.18184C5.91452 9.15799 5.91452 9.11028 5.91452 9.08643L5.93837 8.65715H2.838V10.6605H2.81415ZM2.81415 5.77142H5.91452V4.98441H2.81415V5.77142ZM2.81415 7.65549H5.91452V6.79693H2.81415V7.65549ZM5.3183 13.7847C5.29445 13.3077 5.2706 12.8546 5.2706 12.473C5.2706 11.996 5.2229 11.5667 5.12751 11.1375L6.4869 11.0182L6.72539 12.3061C6.79694 12.8784 6.84464 13.3316 6.86849 13.6654L5.3183 13.7847ZM9.68267 3.19573V3.36267C9.70652 3.60116 9.89731 3.7204 10.2073 3.7204H12.2107C12.5207 3.7204 12.7115 3.67271 12.783 3.55346C12.8546 3.43422 12.9261 3.10033 12.9977 2.52795C12.9977 2.4564 12.9977 2.38486 13.0215 2.28946L14.3332 2.71875C14.2617 3.57731 14.1186 4.14969 13.8324 4.43587C13.5701 4.74591 13.0454 4.88901 12.2822 4.88901H10.0166C9.39648 4.88901 8.94335 4.76976 8.68101 4.50743C8.41867 4.26893 8.29943 3.79195 8.29943 3.12418V0.0715047H9.68267V1.4309C9.84961 1.3832 10.0166 1.35935 10.1358 1.3355C11.2567 1.12086 12.3776 0.786978 13.4985 0.357696L14.0709 1.50245C12.8069 2.00328 11.4475 2.38486 9.99271 2.6472C9.92116 2.6472 9.80192 2.67105 9.68267 2.71875V3.19573ZM9.68267 8.6333V8.80025C9.70652 9.03874 9.89731 9.15799 10.2073 9.15799H12.2584C12.5684 9.15799 12.7592 9.11028 12.8307 8.99104C12.9023 8.87179 12.9977 8.51406 13.0692 7.94168C13.0692 7.87014 13.0692 7.79859 13.0931 7.67934L14.4048 8.10863C14.2855 9.13414 14.0947 9.75421 13.8086 9.9927C13.5224 10.2312 13.0454 10.3504 12.3299 10.3504H10.0166H9.82576C9.30109 10.3504 8.9195 10.2312 8.68101 9.96885C8.44252 9.73036 8.29943 9.25338 8.29943 8.58561V5.41369H9.68267V6.77308C11.1852 6.51074 12.4492 6.15301 13.4985 5.69988L14.0709 6.84463C12.8307 7.32161 11.3521 7.72704 9.68267 8.06093V8.6333ZM8.94335 13.737C8.94335 13.5939 8.9195 13.2362 8.8718 12.6876C8.84795 12.1391 8.72871 11.5906 8.51407 11.0421L9.84961 10.8751C10.1358 11.7575 10.3266 12.5445 10.422 13.2839C10.422 13.3554 10.422 13.427 10.4458 13.5224L8.94335 13.737ZM13.1408 13.9039L12.4015 12.5445C12.1868 12.163 11.9006 11.7098 11.5429 11.1613L12.783 10.5889C13.3554 11.2567 13.9278 12.0676 14.4525 12.95C14.4763 13.0215 14.524 13.0931 14.5956 13.1885L13.1408 13.9039Z" fill="#717071"/>
<path d="M26.6869 11.1612C26.2338 12.2344 25.566 13.1646 24.6598 13.9039L23.4196 13.1169C24.2066 12.4491 24.8744 11.6382 25.4229 10.6843L26.6869 11.1612ZM23.7297 3.33876L23.4912 2.02707L24.1351 2.05091L24.6359 2.02707C24.8744 1.76473 25.1367 1.38314 25.3752 0.953861L25.8999 0.0237427L27.307 0.286083L26.7823 1.1685C26.6154 1.45469 26.4484 1.71703 26.2815 1.90782C26.2577 1.93167 26.21 1.97937 26.1861 2.02707L27.3547 1.95552C27.8794 1.95552 28.261 1.90782 28.5472 1.81242L28.3564 1.55009L27.9748 1.07311L29.1195 0.47688C29.6919 1.09695 30.3358 1.93167 31.0752 2.98103L29.8112 3.72034L29.5488 3.26721L29.3103 2.90948C28.4279 3.10027 27.5693 3.17182 26.7346 3.17182C25.6137 3.19567 24.6121 3.24337 23.7297 3.33876ZM25.6376 10.6604H24.2782V3.83959H30.0973V9.25332V9.49181C30.0973 10.1596 29.7396 10.4935 29.0241 10.4935H27.4978L27.2355 9.32486L28.4279 9.37256C28.6426 9.37256 28.738 9.30102 28.738 9.18177C28.738 9.15793 28.738 9.11022 28.738 9.08637L28.7618 8.65709H25.6614V10.6604H25.6376ZM25.6376 5.77136H28.738V4.98434H25.6376V5.77136ZM25.6376 7.65543H28.738V6.79687H25.6376V7.65543ZM28.1417 13.7846C28.1179 13.3077 28.094 12.8545 28.094 12.4729C28.094 11.996 28.0463 11.5667 27.9509 11.1374L29.3103 11.0181L29.5488 12.306C29.6204 12.8784 29.6681 13.3315 29.6919 13.6654L28.1417 13.7846ZM32.5061 3.19567V3.36261C32.5299 3.6011 32.7207 3.72034 33.0308 3.72034H35.0341C35.3441 3.72034 35.5349 3.67265 35.6065 3.5534C35.678 3.43416 35.7496 3.10027 35.8211 2.52789C35.8211 2.45634 35.8211 2.3848 35.845 2.2894L37.1567 2.71869C37.0851 3.57725 36.942 4.14962 36.6558 4.43581C36.3935 4.74585 35.8688 4.88895 35.1056 4.88895H32.84C32.2199 4.88895 31.7668 4.7697 31.5044 4.50736C31.2421 4.26887 31.1229 3.79189 31.1229 3.12412V0.0714436H32.5061V1.43084C32.673 1.38314 32.84 1.35929 32.9592 1.33544C34.0801 1.1208 35.201 0.786917 36.3219 0.357635L36.8943 1.50239C35.6303 2.00321 34.2709 2.3848 32.8161 2.64714C32.7446 2.64714 32.6253 2.67099 32.5061 2.71869V3.19567ZM32.5061 8.63324V8.80019C32.5299 9.03868 32.7207 9.15792 33.0308 9.15792H35.0818C35.3918 9.15792 35.5826 9.11022 35.6542 8.99098C35.7257 8.87173 35.8211 8.514 35.8927 7.94162C35.8927 7.87008 35.8927 7.79853 35.9165 7.67928L37.2282 8.10857C37.109 9.13408 36.9182 9.75415 36.632 9.99264C36.3458 10.2311 35.8688 10.3504 35.1533 10.3504H32.84H32.6492C32.1245 10.3504 31.7429 10.2311 31.5044 9.96879C31.2659 9.7303 31.1229 9.25332 31.1229 8.58555V5.41362H32.5061V6.77302C34.0086 6.51068 35.2726 6.15295 36.3219 5.69982L36.8943 6.84457C35.6542 7.32155 34.1755 7.72698 32.5061 8.06087V8.63324ZM31.7668 13.7369C31.7668 13.5938 31.7429 13.2361 31.6952 12.6876C31.6714 12.139 31.5521 11.5905 31.3375 11.042L32.673 10.875C32.9592 11.7575 33.15 12.5445 33.2454 13.2838C33.2454 13.3554 33.2454 13.4269 33.2693 13.5223L31.7668 13.7369ZM35.9642 13.9039L35.2249 12.5445C35.0102 12.1629 34.7241 11.7098 34.3663 11.1612L35.6065 10.5889C36.1788 11.2566 36.7512 12.0675 37.2759 12.9499C37.2998 13.0215 37.3474 13.093 37.419 13.1884L35.9642 13.9039Z" fill="#717071"/>
<path d="M55.2105 8.82404C55.3297 9.34872 55.3774 9.96879 55.3774 10.6604C55.3774 11.9483 55.1866 12.8307 54.805 13.2838C54.4235 13.7369 53.6364 13.9516 52.444 13.9516C52.1101 13.9516 51.8239 13.9516 51.6331 13.9277L51.2038 12.616C51.9193 12.616 52.4678 12.616 52.8017 12.6399C52.8017 12.6399 52.8256 12.6399 52.8494 12.6399C53.2549 12.6399 53.5172 12.4729 53.6603 12.1391C53.8034 11.8052 53.8749 11.3043 53.8749 10.6843C53.8749 10.3742 53.8749 10.2073 53.8511 10.1596C52.0863 11.3759 49.8444 12.4968 47.078 13.4507L46.2671 12.0914C49.2244 11.2089 51.6808 10.0642 53.6126 8.68094L53.5172 8.27551C53.4933 8.15626 53.4456 8.06087 53.4218 7.98932L53.3741 7.89392C52.134 8.72864 50.2976 9.53951 47.8411 10.3504C47.6503 10.4219 47.4834 10.4696 47.3164 10.5412L46.5533 9.22947C49.3913 8.49015 51.49 7.67928 52.8256 6.77302L52.6109 6.43914L52.4201 6.1768C51.4662 6.60608 50.1545 7.03536 48.4373 7.46464C48.2227 7.51234 47.9604 7.58388 47.6265 7.65543L46.9587 6.39144C49.3913 5.986 51.2992 5.43747 52.6825 4.722H48.6758V3.41031H57.9531V4.722H54.972C54.7812 4.8651 54.5904 5.0082 54.3758 5.12744L53.6841 5.58057C53.9226 5.84291 54.1373 6.15295 54.3281 6.53453L54.8527 7.51234C56.1883 6.89227 57.2615 6.15295 58.0724 5.34208L59.1217 6.36759C58.8355 6.62992 58.5016 6.89227 58.1678 7.13076L57.0468 7.89392C57.7385 9.49181 58.8117 10.8989 60.2903 12.0914L59.4079 13.403C58.6209 12.7114 58.0008 12.0437 57.5238 11.4236C57.0468 10.8035 56.4745 9.84954 55.8067 8.53785L55.5205 8.68094L55.2105 8.82404ZM47.9604 2.45635V4.26887H46.5056V1.14465H52.277L52.0863 0.739213L51.8001 0.214539L53.3264 0.0237427L53.6364 0.596125L53.8988 1.14465H59.9564V4.26887H58.5016V2.45635H47.9604Z" fill="#717071"/>
<path d="M81.3491 5.81908V3.31493H76.6985V6.22451H75.3391V3.31493H70.7363V5.81908H69.353V2.26558H75.3391V1.57395H69.9016V0.3815H82.2077V1.57395H76.6985V2.26558H82.7323V5.81908H81.3491ZM70.2116 11.7336V6.79689H81.8738V11.1374L82.9231 11.7098C82.8039 12.5922 82.5892 13.1646 82.3269 13.3792C82.0407 13.5939 81.5637 13.7131 80.8721 13.7131H77.0324H76.8416C75.8161 13.7131 75.3153 13.1884 75.3153 12.1391V11.7336H70.2116ZM71.2848 3.91116H74.6952V4.72203H71.3086V3.91116H71.2848ZM74.6952 6.20067H71.3086V5.3898H74.6952V6.20067ZM71.5471 7.84625V8.75251H75.3153V7.84625H71.5471ZM71.5471 10.6843H75.3153V9.73032H71.5471V10.6843ZM80.5382 7.84625H76.6747V8.75251H80.5382V7.84625ZM80.5382 10.6843V9.73032H76.6747V10.6843H80.5382ZM76.6747 11.7336V12.0675C76.6747 12.4014 76.8416 12.5922 77.1994 12.5922H80.896C81.1344 12.5922 81.3014 12.5445 81.3968 12.473C81.4922 12.3776 81.5876 12.1868 81.6353 11.8529C81.6353 11.829 81.6353 11.7813 81.6591 11.7575H76.6747V11.7336ZM80.6575 4.74588H77.2709V3.93501H80.6575V4.74588ZM80.6575 6.20067H77.2709V5.3898H80.6575V6.20067Z" fill="#717071"/>
<path d="M99.5458 3.24346V5.22294H104.96V10.6844V10.8752C104.96 11.4475 104.84 11.853 104.602 12.0915C104.363 12.3299 103.91 12.4492 103.242 12.4492H101.573L101.239 10.9467L103.052 11.0182C103.386 11.0182 103.552 10.8513 103.552 10.5413V6.60618H99.5458V14.0232H98.1387V6.60618H94.2514V12.5207H92.8204V5.24679H98.1387V3.26731H91.8665V1.86022H98.258C98.1626 1.62173 98.0434 1.35939 97.8526 1.07321L97.4471 0.333885L98.8065 0L99.2358 0.858559C99.355 1.1209 99.4981 1.45479 99.6412 1.83637H105.89V3.19577H99.5458V3.24346Z" fill="#717071"/>
<path d="M122.489 13.9994H121.081V10.3743C120.342 11.1375 119.555 11.7337 118.72 12.1868C117.886 12.64 116.789 13.0693 115.429 13.4985L114.714 12.2345C116.765 11.8291 118.387 11.1852 119.555 10.3743H114.952V9.13417H121.081V8.371H116.479V4.43591L116.049 5.0083C115.906 5.17524 115.787 5.34218 115.62 5.48528L115.525 5.58067L114.69 4.22127C115.954 3.00497 116.932 1.62173 117.647 0L119.078 0.262333C118.911 0.691616 118.744 1.0732 118.53 1.40709C118.53 1.43094 118.506 1.45479 118.458 1.50249H121.487L121.248 0.977804C121.081 0.643918 120.962 0.405429 120.891 0.286184L122.274 0.0238432L122.679 0.787015L122.989 1.52634H127.878V2.64724H122.942V3.41041H127.282V4.43591H122.942V5.29448H127.282V6.31999H122.942V7.2024H128.117V8.371H122.489V9.13417H128.499V10.3743H123.991C125.184 11.1852 126.758 11.7576 128.713 12.1392L128.069 13.4985C125.565 12.8308 123.729 11.7814 122.512 10.3743V13.9994H122.489ZM121.606 3.41041V2.64724H117.838V3.41041H121.606ZM121.606 5.29448V4.43591H117.838V5.29448H121.606ZM121.606 7.2024V6.31999H117.838V7.2024H121.606Z" fill="#717071"/>
</svg>
