<svg width="44" height="44" viewBox="0 0 44 44" fill="none" xmlns="http://www.w3.org/2000/svg">
<circle cx="22" cy="22" r="21" stroke="#253D4E" stroke-width="2"/>
<mask id="mask0_1296_3274" style="mask-type:alpha" maskUnits="userSpaceOnUse" x="10" y="10" width="24" height="24">
<rect x="10" y="10" width="24" height="24" fill="#D9D9D9"/>
</mask>
<g mask="url(#mask0_1296_3274)">
<path d="M21 17.825L16.1 22.725C15.9 22.925 15.6667 23.0209 15.4 23.0125C15.1333 23.0042 14.9 22.9 14.7 22.7C14.5167 22.5 14.4208 22.2667 14.4125 22C14.4042 21.7334 14.5 21.5 14.7 21.3L21.3 14.7C21.4 14.6 21.5083 14.5292 21.625 14.4875C21.7417 14.4459 21.8667 14.425 22 14.425C22.1333 14.425 22.2583 14.4459 22.375 14.4875C22.4917 14.5292 22.6 14.6 22.7 14.7L29.3 21.3C29.4833 21.4834 29.575 21.7125 29.575 21.9875C29.575 22.2625 29.4833 22.5 29.3 22.7C29.1 22.9 28.8625 23 28.5875 23C28.3125 23 28.075 22.9 27.875 22.7L23 17.825V29C23 29.2834 22.9042 29.5209 22.7125 29.7125C22.5208 29.9042 22.2833 30 22 30C21.7167 30 21.4792 29.9042 21.2875 29.7125C21.0958 29.5209 21 29.2834 21 29V17.825Z" fill="#253D4E"/>
</g>
</svg>
